<svg id="logo" class="inline-block max-w-md" viewBox="0 0 676 86" fill="none" xmlns="http://www.w3.org/2000/svg">
    <path d="M251.81 83.61C255.974 83.61 259.35 80.2342 259.35 76.07C259.35 71.9058 255.974 68.53 251.81 68.53C247.646 68.53 244.27 71.9058 244.27 76.07C244.27 80.2342 247.646 83.61 251.81 83.61Z" fill="#FF5841"/>
    <path d="M279.69 83.61C283.854 83.61 287.23 80.2342 287.23 76.07C287.23 71.9058 283.854 68.53 279.69 68.53C275.526 68.53 272.15 71.9058 272.15 76.07C272.15 80.2342 275.526 83.61 279.69 83.61Z" fill="#FF5841"/>
    <path d="M288.5 61.45C287.98 60.92 287.53 60.35 287.15 59.77C286.1 58.4 285.22 56.84 284.51 55.1C282.81 55.05 277.29 54.9 271.37 55.08L261.63 54.93C254.26 54.53 252.01 54.76 247.79 48.89C246.49 47.08 245.45 45.23 244.67 43.15C243.8 40.82 242.6 36.39 241.85 33.93C241.23 31.91 239.08 24.35 238.26 22.35C235.45 15.98 231.3 12.44 225.84 9.58001H225.83C212.32 4.15001 204.75 10.34 203.9 11.09C204.58 11.18 205.26 11.29 205.93 11.42C214.97 12.25 223.63 16.43 227.56 25C228.71 27.5 230.64 33.73 231.08 36.92C232.76 49.23 240.66 66.2 256.8 66.2L294.65 66.31C292.17 64.94 291.09 64.07 288.5 61.45Z" fill="#FF5841"/>
    <path d="M239.7 17.59C241.82 20.62 242.94 24.39 243.51 28.38H285.99C288.04 23.61 291.02 20.09 294.66 17.59H239.7Z" fill="#FF5841"/>
</svg>
